<svg width="54" height="189" viewBox="0 0 54 189" xmlns="http://www.w3.org/2000/svg"><title>Shape</title><path d="M34.18 59.346V39.509c0-22.68 3.084-26.673 9.562-26.673h8.232s1.025-1.756 1.025-5.791-1.025-5.573-1.025-5.573l-.53-.045C50.276 1.327 46.23 1 43.328 1c-8.832 0-14.54 3.035-17.966 9.55-3 5.707-4.339 14.31-4.339 27.895v22.179C21.023 73.569 17.82 89 2.564 89h-.576S1 90.821 1 94.066c0 3.246.988 5.066.988 5.066h.577c15.256 0 18.46 15.433 18.46 28.378v23.045c0 24.285 3.553 37.445 22.304 37.445 2.335 0 5.723-.22 8.118-.428l.528-.046S53 185.355 53 181.706c0-3.65-1.025-5.543-1.025-5.543h-8.232c-6.478 0-9.562-3.991-9.562-26.672v-20.7c0-19.702-5.428-31.366-16.142-34.723C28.751 90.71 34.18 79.044 34.18 59.346z" stroke="#FF4D3D" fill="none" fill-rule="evenodd"/></svg>